<?xml version="1.0" encoding="UTF-8" standalone="no"?>
<!DOCTYPE svg PUBLIC "-//W3C//DTD SVG 1.1//EN" "http://www.w3.org/Graphics/SVG/1.1/DTD/svg11.dtd">
<svg width="100%" height="100%" viewBox="0 0 200 128" version="1.1" xmlns="http://www.w3.org/2000/svg" xmlns:xlink="http://www.w3.org/1999/xlink" xml:space="preserve" xmlns:serif="http://www.serif.com/" style="fill-rule:evenodd;clip-rule:evenodd;stroke-linejoin:round;stroke-miterlimit:2;">
    <g transform="matrix(1,0,0,1,0,-0.309276)">
        <g>
            <g transform="matrix(1.03255,0,0,1.0353,-18.5368,-13.2347)">
                <circle cx="114.8" cy="75.117" r="18.305"/>
            </g>
            <g transform="matrix(1.27726,0.800591,-0.288875,0.463326,-33.7778,-82.3344)">
                <path d="M126.983,55.387C126.983,55.387 131.237,62.98 131.237,65.739C131.237,71.453 129.331,76.091 126.983,76.091C124.635,76.091 122.728,71.453 122.728,65.739C122.728,62.98 126.983,55.387 126.983,55.387Z"/>
            </g>
        </g>
        <g transform="matrix(0.942221,-0.944727,0.854157,0.856429,-48.9755,71.6531)">
            <path d="M29.886,24.393C31.575,22.511 33.918,21.344 36.506,21.344L90.924,21.344C96.065,21.344 100.239,25.948 100.239,31.62C100.239,37.291 96.065,41.896 90.924,41.896L45.753,41.896L45.753,91.723C45.753,97.394 41.579,101.999 36.438,101.999C31.297,101.999 27.123,97.394 27.123,91.723L27.123,31.695C27.123,28.84 28.18,26.256 29.886,24.393Z"/>
        </g>
        <g transform="matrix(-0.942221,-0.944727,-0.854157,0.856429,249.014,71.6531)">
            <path d="M29.886,24.393C31.575,22.511 33.918,21.344 36.506,21.344L90.924,21.344C96.065,21.344 100.239,25.948 100.239,31.62C100.239,37.291 96.065,41.896 90.924,41.896L45.753,41.896L45.753,91.723C45.753,97.394 41.579,101.999 36.438,101.999C31.297,101.999 27.123,97.394 27.123,91.723L27.123,31.695C27.123,28.84 28.18,26.256 29.886,24.393Z"/>
        </g>
        <g transform="matrix(1.03255,0,0,1.0353,-18.7285,-13.6581)">
            <g>
                <g>
                    <g transform="matrix(1,0,0,1.02496,0.0875518,-1.0768)">
                        <path d="M116.354,37.656L116.354,45.301C116.354,46.092 115.695,46.733 114.883,46.733C114.07,46.733 113.411,46.092 113.411,45.301L113.411,37.656C113.411,36.865 114.07,36.224 114.883,36.224C115.695,36.224 116.354,36.865 116.354,37.656Z"/>
                    </g>
                    <g transform="matrix(1,0,0,1.02496,0.117432,67.1014)">
                        <path d="M116.354,37.656L116.354,45.301C116.354,46.092 115.695,46.733 114.883,46.733C114.07,46.733 113.411,46.092 113.411,45.301L113.411,37.656C113.411,36.865 114.07,36.224 114.883,36.224C115.695,36.224 116.354,36.865 116.354,37.656Z"/>
                    </g>
                </g>
            </g>
        </g>
        <g transform="matrix(6.32254e-17,1.0353,-1.03255,6.33936e-17,177.984,-54.5101)">
            <g>
                <g>
                    <g transform="matrix(1,0,0,1.02496,0.0875518,-3.0768)">
                        <path d="M116.354,37.663L116.354,45.294C116.354,46.088 115.695,46.733 114.883,46.733C114.07,46.733 113.411,46.088 113.411,45.294L113.411,37.663C113.411,36.869 114.07,36.224 114.883,36.224C115.695,36.224 116.354,36.869 116.354,37.663Z"/>
                    </g>
                    <g transform="matrix(1,0,0,1.02496,0.117432,69.1014)">
                        <path d="M116.354,37.663L116.354,45.294C116.354,46.088 115.695,46.733 114.883,46.733C114.07,46.733 113.411,46.088 113.411,45.294L113.411,37.663C113.411,36.869 114.07,36.224 114.883,36.224C115.695,36.224 116.354,36.869 116.354,37.663Z"/>
                    </g>
                </g>
            </g>
        </g>
        <g transform="matrix(0.730122,-0.732065,0.730122,0.732065,-39.0972,93.4204)">
            <g>
                <g>
                    <g transform="matrix(1,0,0,1.02496,0.0875518,-1.0768)">
                        <path d="M116.354,37.659L116.354,45.298C116.354,46.09 115.695,46.733 114.883,46.733C114.07,46.733 113.411,46.09 113.411,45.298L113.411,37.659C113.411,36.867 114.07,36.224 114.883,36.224C115.695,36.224 116.354,36.867 116.354,37.659Z"/>
                    </g>
                    <g transform="matrix(1,0,0,1.02496,0.117432,67.1014)">
                        <path d="M116.354,37.659L116.354,45.298C116.354,46.09 115.695,46.733 114.883,46.733C114.07,46.733 113.411,46.09 113.411,45.298L113.411,37.659C113.411,36.867 114.07,36.224 114.883,36.224C115.695,36.224 116.354,36.867 116.354,37.659Z"/>
                    </g>
                </g>
            </g>
        </g>
        <g transform="matrix(0.730122,0.732065,-0.730122,0.732065,71.1893,-74.9329)">
            <g>
                <g>
                    <g transform="matrix(1,0,0,1.02496,0.0875518,-1.0768)">
                        <path d="M116.354,37.659L116.354,45.298C116.354,46.09 115.695,46.733 114.883,46.733C114.07,46.733 113.411,46.09 113.411,45.298L113.411,37.659C113.411,36.867 114.07,36.224 114.883,36.224C115.695,36.224 116.354,36.867 116.354,37.659Z"/>
                    </g>
                    <g transform="matrix(1,0,0,1.02496,0.117432,67.1014)">
                        <path d="M116.354,37.659L116.354,45.298C116.354,46.09 115.695,46.733 114.883,46.733C114.07,46.733 113.411,46.09 113.411,45.298L113.411,37.659C113.411,36.867 114.07,36.224 114.883,36.224C115.695,36.224 116.354,36.867 116.354,37.659Z"/>
                    </g>
                </g>
            </g>
        </g>
        <g transform="matrix(1.03255,0,0,1.0353,-18.7438,-13.6581)">
            <g transform="matrix(0.965926,-0.258819,0.173816,0.648691,-12.5195,43.5252)">
                <path d="M116.354,38.41L116.354,44.547C116.354,45.754 115.695,46.733 114.883,46.733C114.07,46.733 113.411,45.754 113.411,44.547L113.411,38.41C113.411,37.203 114.07,36.224 114.883,36.224C115.695,36.224 116.354,37.203 116.354,38.41Z"/>
            </g>
            <g transform="matrix(0.965926,-0.258819,0.173816,0.648691,6.14474,113.105)">
                <path d="M116.354,38.41L116.354,44.547C116.354,45.754 115.695,46.733 114.883,46.733C114.07,46.733 113.411,45.754 113.411,44.547L113.411,38.41C113.411,37.203 114.07,36.224 114.883,36.224C115.695,36.224 116.354,37.203 116.354,38.41Z"/>
            </g>
        </g>
        <g transform="matrix(0.997366,-0.267954,0.267243,1.00002,-34.8716,19.8171)">
            <g transform="matrix(0.965926,-0.258819,0.173816,0.648691,-12.5195,43.5252)">
                <path d="M116.354,38.412L116.354,44.545C116.354,45.753 115.695,46.733 114.883,46.733C114.07,46.733 113.411,45.753 113.411,44.545L113.411,38.412C113.411,37.204 114.07,36.224 114.883,36.224C115.695,36.224 116.354,37.204 116.354,38.412Z"/>
            </g>
            <g transform="matrix(0.965926,-0.258819,0.173816,0.648691,6.14474,113.105)">
                <path d="M116.354,38.412L116.354,44.545C116.354,45.753 115.695,46.733 114.883,46.733C114.07,46.733 113.411,45.753 113.411,44.545L113.411,38.412C113.411,37.204 114.07,36.224 114.883,36.224C115.695,36.224 116.354,37.204 116.354,38.412Z"/>
            </g>
        </g>
        <g transform="matrix(0.730122,-0.732065,0.730122,0.732065,-39.0829,93.4126)">
            <g transform="matrix(0.965926,-0.258819,0.173816,0.648691,-12.5195,43.5252)">
                <path d="M116.354,38.418L116.354,44.539C116.354,45.75 115.695,46.733 114.883,46.733C114.07,46.733 113.411,45.75 113.411,44.539L113.411,38.418C113.411,37.207 114.07,36.224 114.883,36.224C115.695,36.224 116.354,37.207 116.354,38.418Z"/>
            </g>
            <g transform="matrix(0.965926,-0.258819,0.173816,0.648691,6.14474,113.105)">
                <path d="M116.354,38.418L116.354,44.539C116.354,45.75 115.695,46.733 114.883,46.733C114.07,46.733 113.411,45.75 113.411,44.539L113.411,38.418C113.411,37.207 114.07,36.224 114.883,36.224C115.695,36.224 116.354,37.207 116.354,38.418Z"/>
            </g>
        </g>
        <g transform="matrix(0.516275,-0.896592,0.894214,0.517648,-26.8793,128.518)">
            <g transform="matrix(0.965926,-0.258819,0.173816,0.648691,-12.5195,43.5252)">
                <path d="M116.354,38.42L116.354,44.537C116.354,45.749 115.695,46.733 114.883,46.733C114.07,46.733 113.411,45.749 113.411,44.537L113.411,38.42C113.411,37.208 114.07,36.224 114.883,36.224C115.695,36.224 116.354,37.208 116.354,38.42Z"/>
            </g>
            <g transform="matrix(0.965926,-0.258819,0.173816,0.648691,6.14474,113.105)">
                <path d="M116.354,38.42L116.354,44.537C116.354,45.749 115.695,46.733 114.883,46.733C114.07,46.733 113.411,45.749 113.411,44.537L113.411,38.42C113.411,37.208 114.07,36.224 114.883,36.224C115.695,36.224 116.354,37.208 116.354,38.42Z"/>
            </g>
        </g>
        <g transform="matrix(0.730122,0.732065,-0.730122,0.732065,71.1477,-74.9483)">
            <g transform="matrix(0.965926,-0.258819,0.173816,0.648691,-12.5195,43.5252)">
                <path d="M116.354,38.412L116.354,44.545C116.354,45.753 115.695,46.733 114.883,46.733C114.07,46.733 113.411,45.753 113.411,44.545L113.411,38.412C113.411,37.204 114.07,36.224 114.883,36.224C115.695,36.224 116.354,37.204 116.354,38.412Z"/>
            </g>
            <g transform="matrix(0.965926,-0.258819,0.173816,0.648691,6.14474,113.105)">
                <path d="M116.354,38.412L116.354,44.545C116.354,45.753 115.695,46.733 114.883,46.733C114.07,46.733 113.411,45.753 113.411,44.545L113.411,38.412C113.411,37.204 114.07,36.224 114.883,36.224C115.695,36.224 116.354,37.204 116.354,38.412Z"/>
            </g>
        </g>
        <g transform="matrix(0.894214,0.517648,-0.516275,0.896592,36.1359,-62.7123)">
            <g transform="matrix(0.965926,-0.258819,0.173816,0.648691,-12.5195,43.5252)">
                <path d="M116.354,38.41L116.354,44.547C116.354,45.754 115.695,46.733 114.883,46.733C114.07,46.733 113.411,45.754 113.411,44.547L113.411,38.41C113.411,37.203 114.07,36.224 114.883,36.224C115.695,36.224 116.354,37.203 116.354,38.41Z"/>
            </g>
            <g transform="matrix(0.965926,-0.258819,0.173816,0.648691,6.14474,113.105)">
                <path d="M116.354,38.41L116.354,44.547C116.354,45.754 115.695,46.733 114.883,46.733C114.07,46.733 113.411,45.754 113.411,44.547L113.411,38.41C113.411,37.203 114.07,36.224 114.883,36.224C115.695,36.224 116.354,37.203 116.354,38.41Z"/>
            </g>
        </g>
        <g transform="matrix(6.32254e-17,1.0353,-1.03255,6.33936e-17,177.934,-54.5551)">
            <g transform="matrix(0.965926,-0.258819,0.173816,0.648691,-12.5195,43.5252)">
                <path d="M116.354,38.42L116.354,44.537C116.354,45.749 115.695,46.733 114.883,46.733C114.07,46.733 113.411,45.749 113.411,44.537L113.411,38.42C113.411,37.208 114.07,36.224 114.883,36.224C115.695,36.224 116.354,37.208 116.354,38.42Z"/>
            </g>
            <g transform="matrix(0.965926,-0.258819,0.173816,0.648691,6.14474,113.105)">
                <path d="M116.354,38.42L116.354,44.537C116.354,45.749 115.695,46.733 114.883,46.733C114.07,46.733 113.411,45.749 113.411,44.537L113.411,38.42C113.411,37.208 114.07,36.224 114.883,36.224C115.695,36.224 116.354,37.208 116.354,38.42Z"/>
            </g>
        </g>
        <g transform="matrix(0.267243,1.00002,-0.997366,0.267954,144.548,-70.7259)">
            <g transform="matrix(0.965926,-0.258819,0.173816,0.648691,-12.5195,43.5252)">
                <path d="M116.354,38.418L116.354,44.539C116.354,45.75 115.695,46.733 114.883,46.733C114.07,46.733 113.411,45.75 113.411,44.539L113.411,38.418C113.411,37.207 114.07,36.224 114.883,36.224C115.695,36.224 116.354,37.207 116.354,38.418Z"/>
            </g>
            <g transform="matrix(0.965926,-0.258819,0.173816,0.648691,6.14474,113.105)">
                <path d="M116.354,38.418L116.354,44.539C116.354,45.75 115.695,46.733 114.883,46.733C114.07,46.733 113.411,45.75 113.411,44.539L113.411,38.418C113.411,37.207 114.07,36.224 114.883,36.224C115.695,36.224 116.354,37.207 116.354,38.418Z"/>
            </g>
        </g>
    </g>
</svg>
